# xmcd
#
# Track frame offsets:
#	150
#	20644
#	38136
#	51393
#	69414
#	82255
#	96863
#	116144
#	136372
#	154467
#
# Disc length: 2253 seconds
#
# Revision: 1
# Processed by: cddbd v1.5.2PL0 Copyright (c) Steve Scherf et al.
# Submitted via: audiograbber 1.83.01
#
DISCID=9108cb0a
DTITLE=Barry Michael - Ripped Blue Jeans and ATVs
DYEAR=2008
DGENRE=Country
TTITLE0=Countryman
TTITLE1=Letters From Jail
TTITLE2=Uncountrify Me
TTITLE3=Grace Like God
TTITLE4=Hotter Than A Tiki Torch
TTITLE5=Should I Stay Or Should I Go
TTITLE6=Back Home
TTITLE7=Freight Train
TTITLE8=The Man I Wanna Be
TTITLE9=Meant To Turn You On Not Crack You Up
EXTD=
EXTT0=
EXTT1=
EXTT2=
EXTT3=
EXTT4=
EXTT5=
EXTT6=
EXTT7=
EXTT8=
EXTT9=
PLAYORDER=
